PathFileType	4	(X/Y/Z)	C:/Users/cpontonn/Documents/TRAVAIL - COURS/FORMATION DOCTORALE/COURS 2E/2023/TP OPENSIM/DATA/marche.trc	
DataRate	CameraRate	NumFrames	NumMarkers	Units	OrigDataRate	OrigDataStartFrame	OrigNumFrames	
100.00	100.00	4	38	mm	100.00	477	414	
Frame#	Time	LFHD			LBHD			RFHD			RBHD			C7			T10			CLAV			STRN			LSHO			LRAD			LHUM			LWRB			LWRA			LCAR			RSHO			RRAD			RHUM			RWRB			RWRA			RCAR			LFWT			LBWT			RFWT			RBWT			LKNE			LKNI			LANE			LHEE			LANI			LTAR			LTOE			RKNE			RKNI			RANE			RHEE			RANI			RTAR			RTOE			
		X1	Y1	Z1	X2	Y2	Z2	X3	Y3	Z3	X4	Y4	Z4	X5	Y5	Z5	X6	Y6	Z6	X7	Y7	Z7	X8	Y8	Z8	X9	Y9	Z9	X10	Y10	Z10	X11	Y11	Z11	X12	Y12	Z12	X13	Y13	Z13	X14	Y14	Z14	X15	Y15	Z15	X16	Y16	Z16	X17	Y17	Z17	X18	Y18	Z18	X19	Y19	Z19	X20	Y20	Z20	X21	Y21	Z21	X22	Y22	Z22	X23	Y23	Z23	X24	Y24	Z24	X25	Y25	Z25	X26	Y26	Z26	X27	Y27	Z27	X28	Y28	Z28	X29	Y29	Z29	X30	Y30	Z30	X31	Y31	Z31	X32	Y32	Z32	X33	Y33	Z33	X34	Y34	Z34	X35	Y35	Z35	X36	Y36	Z36	X37	Y37	Z37	X38	Y38	Z38	

363	3.620	-2266.20605	295.96127	1729.73132	-2118.96313	291.40955	1731.74890	-2265.17261	431.07224	1711.39404	-2101.79028	413.71326	1710.55774	-2026.87573	356.88834	1604.29053	-1929.20715	349.33145	1384.89966	-2142.88208	350.64670	1510.08667	-2165.31348	341.66364	1332.47754	-2070.17188	150.68260	1570.14270	-1974.14294	87.77603	1214.13977	-1950.98621	150.00522	1222.71545	-1995.08655	53.17904	962.25073	-2013.28528	128.24272	950.78326	-2012.57056	75.42304	871.40204	-2076.94263	544.41498	1542.43494	-1979.86316	603.99615	1178.78540	-1953.33643	550.97858	1190.67810	-2047.97095	619.68127	926.46307	-2095.67505	566.20313	929.04657	-2090.04492	620.53845	850.47803	-2181.64795	236.53905	1059.96301	-1994.14197	315.72824	1087.16260	-2199.30688	425.69644	1064.44934	-1999.32556	396.70963	1088.00916	-2108.58716	156.47884	546.81879	-2118.00781	267.39246	501.72934	-1761.22363	213.53793	269.47281	-1672.82947	291.75909	306.54022	-1789.26111	299.20184	256.28687	-1752.72913	187.25365	93.75845	-1797.18958	261.91687	44.20447	-2233.40210	478.70932	549.48859	-2232.90479	382.53888	511.29398	-2174.52197	438.82095	89.90697	-2089.06348	376.99890	31.00492	-2183.38599	349.02216	119.49866	-2329.14087	450.38864	28.46059	-2377.20898	358.26999	26.03507 
364	3.630	-2279.13843	296.69830	1729.50830	-2130.19238	291.68011	1733.79480	-2276.76221	431.08173	1714.48340	-2113.33301	414.03122	1712.93188	-2038.59949	357.64816	1606.54504	-1940.91638	349.96997	1387.23914	-2154.58325	351.03036	1512.60596	-2177.03662	341.99738	1334.83374	-2081.74536	150.63008	1573.22363	-1981.78674	89.13390	1217.75391	-1958.46106	150.93620	1227.02625	-2000.06433	56.40563	965.23572	-2017.08777	131.78047	954.18817	-2015.29382	79.87303	874.17676	-2088.92407	544.98517	1544.64832	-1994.43652	606.10461	1180.23047	-1967.48047	553.16052	1191.65063	-2069.36938	620.74194	929.68805	-2116.75366	566.98358	933.69122	-2113.39868	621.39966	854.99451	-2193.89282	237.49559	1062.79004	-2006.07507	315.51141	1089.86255	-2210.77588	426.59857	1066.51025	-2011.34399	396.59558	1090.65259	-2131.17554	156.77135	549.74896	-2141.57422	267.80957	504.90210	-1788.52173	213.29047	267.23999	-1696.09485	289.89569	299.51212	-1815.60718	298.90707	255.48547	-1789.84485	185.39566	92.16790	-1835.10913	260.90002	44.41166	-2233.65405	481.17740	549.94501	-2236.42114	382.83029	511.19254	-2174.88770	438.69376	90.31854	-2089.23706	376.99774	31.49174	-2182.56372	349.89130	120.00027	-2329.21021	450.41000	28.29367	-2378.43359	357.02850	25.54218 
365	3.640	-2290.27588	296.62851	1731.95752	-2141.28809	291.89252	1735.64221	-2288.21143	431.09708	1717.42871	-2124.76709	414.30255	1715.18237	-2050.16138	358.32489	1608.57300	-1952.45337	350.54709	1389.37366	-2166.11401	351.41919	1514.95178	-2188.56812	342.29565	1337.02783	-2093.14624	151.18686	1575.79041	-1988.77808	90.16751	1221.32642	-1965.98303	151.76909	1231.33411	-2005.15198	59.68125	968.22278	-2021.43127	135.33441	957.49915	-2018.60901	84.05248	877.05902	-2100.66968	545.52423	1546.65271	-2008.74573	608.16241	1181.41614	-1981.27295	555.32178	1192.44141	-2089.97144	621.72559	932.67065	-2137.36792	567.51306	938.27307	-2136.64648	622.11639	859.68323	-2205.90991	238.37169	1065.38977	-2017.86731	315.52322	1092.37097	-2222.17798	427.46964	1068.46484	-2022.87048	396.61197	1092.83215	-2153.39233	157.21593	552.57019	-2164.50415	268.46298	508.25757	-1816.32190	212.94464	263.96085	-1720.11536	287.86295	290.78763	-1842.17017	298.71130	253.55771	-1828.24988	183.80869	89.90887	-1874.08948	260.36472	44.12302	-2237.09277	481.29932	549.88342	-2239.36353	382.70068	511.07120	-2175.33301	438.46826	90.70577	-2089.46899	376.89990	31.95151	-2184.43457	348.75702	120.12340	-2329.29004	450.44022	28.21303	-2378.59277	357.09393	25.27868 
366	3.650	-2301.35474	296.56982	1734.26929	-2152.34766	291.99103	1737.29492	-2299.50391	431.09818	1720.17358	-2135.99219	414.45810	1717.19043	-2061.59497	359.02200	1610.43298	-1963.92371	351.04062	1391.40442	-2177.62280	351.82309	1517.14282	-2199.87183	342.60696	1339.08228	-2104.49609	151.79073	1578.20935	-1997.17310	91.62129	1224.68420	-1973.58643	152.42198	1235.63086	-2010.38525	62.97718	971.13556	-2026.25354	138.81538	960.69977	-2022.57520	88.01364	879.94202	-2112.16113	546.02832	1548.46729	-2022.69336	610.18451	1182.40259	-1994.85901	557.30237	1192.95276	-2111.60181	622.54449	936.30573	-2157.65186	567.89569	942.91241	-2159.69482	622.68341	864.47345	-2217.79321	239.23984	1067.86560	-2029.40906	315.50766	1094.53638	-2233.43579	428.34543	1070.29382	-2034.32678	396.67435	1094.81653	-2175.13989	157.94867	555.34436	-2186.41699	270.18115	510.99835	-1843.50867	213.45047	259.21030	-1745.30688	285.72873	280.80176	-1869.45740	298.55066	250.29300	-1866.15356	183.35115	87.08177	-1913.67468	260.44949	43.46502	-2240.35205	481.28937	549.76221	-2242.41772	382.05627	511.36694	-2175.62769	438.21854	91.07647	-2089.62964	376.76788	32.29337	-2184.90405	348.45715	120.36216	-2329.31714	450.42355	28.12800	-2378.73535	357.12073	25.01366 
